<?xml version="1.0" encoding="UTF-8" ?>
<svg version="1.1" width="320" height="320" xmlns="http://www.w3.org/2000/svg" shape-rendering="crispEdges">
<rect x="120" y="0" width="80" height="70" fill="#797AB4" />
<rect x="100" y="10" width="20" height="60" fill="#797AB4" />
<rect x="200" y="10" width="20" height="50" fill="#797AB4" />
<rect x="80" y="20" width="20" height="30" fill="#797AB4" />
<rect x="220" y="20" width="20" height="30" fill="#797AB4" />
<rect x="70" y="30" width="10" height="150" fill="#797AB4" />
<rect x="240" y="30" width="10" height="150" fill="#797AB4" />
<rect x="60" y="40" width="10" height="160" fill="#797AB4" />
<rect x="250" y="40" width="10" height="160" fill="#797AB4" />
<rect x="80" y="50" width="10" height="10" fill="#CBCDF7" />
<rect x="90" y="50" width="10" height="10" fill="#797AB4" />
<rect x="220" y="50" width="10" height="10" fill="#CBCDF7" />
<rect x="230" y="50" width="10" height="110" fill="#797AB4" />
<rect x="50" y="60" width="10" height="120" fill="#797AB4" />
<rect x="80" y="60" width="10" height="100" fill="#797AB4" />
<rect x="90" y="60" width="10" height="10" fill="#CBCDF7" />
<rect x="200" y="60" width="20" height="10" fill="#CBCDF7" />
<rect x="220" y="60" width="10" height="90" fill="#797AB4" />
<rect x="260" y="60" width="10" height="120" fill="#797AB4" />
<rect x="40" y="70" width="10" height="60" fill="#797AB4" />
<rect x="90" y="70" width="10" height="80" fill="#797AB4" />
<rect x="100" y="70" width="20" height="10" fill="#CBCDF7" />
<rect x="120" y="70" width="20" height="40" fill="#797AB4" />
<rect x="140" y="70" width="50" height="10" fill="#CBCDF7" />
<rect x="190" y="70" width="30" height="60" fill="#797AB4" />
<rect x="270" y="70" width="10" height="60" fill="#797AB4" />
<rect x="100" y="80" width="20" height="50" fill="#797AB4" />
<rect x="140" y="80" width="50" height="20" fill="#797AB4" />
<rect x="30" y="90" width="10" height="50" fill="#797AB4" />
<rect x="280" y="90" width="10" height="50" fill="#797AB4" />
<rect x="140" y="100" width="10" height="20" fill="#797AB4" />
<rect x="150" y="100" width="10" height="20" fill="#E7C2BF" />
<rect x="160" y="100" width="30" height="10" fill="#797AB4" />
<rect x="120" y="110" width="10" height="10" fill="#797AB4" />
<rect x="130" y="110" width="10" height="10" fill="#E7C2BF" />
<rect x="160" y="110" width="10" height="10" fill="#E7C2BF" />
<rect x="170" y="110" width="20" height="10" fill="#797AB4" />
<rect x="20" y="120" width="10" height="40" fill="#797AB4" />
<rect x="120" y="120" width="10" height="10" fill="#E7C2BF" />
<rect x="130" y="120" width="20" height="60" fill="#F7E2DE" />
<rect x="150" y="120" width="10" height="10" fill="#797AB4" />
<rect x="160" y="120" width="10" height="10" fill="#F7E2DE" />
<rect x="170" y="120" width="10" height="10" fill="#E7C2BF" />
<rect x="180" y="120" width="10" height="10" fill="#797AB4" />
<rect x="290" y="120" width="10" height="40" fill="#797AB4" />
<rect x="40" y="130" width="10" height="10" fill="#8284C4" />
<rect x="100" y="130" width="10" height="10" fill="#797AB4" />
<rect x="110" y="130" width="20" height="30" fill="#F7E2DE" />
<rect x="150" y="130" width="10" height="70" fill="#F7E2DE" />
<rect x="160" y="130" width="10" height="10" fill="#797AB4" />
<rect x="170" y="130" width="30" height="10" fill="#F7E2DE" />
<rect x="200" y="130" width="20" height="10" fill="#797AB4" />
<rect x="270" y="130" width="10" height="10" fill="#8284C4" />
<rect x="30" y="140" width="10" height="20" fill="#8284C4" />
<rect x="40" y="140" width="10" height="50" fill="#797AB4" />
<rect x="100" y="140" width="10" height="20" fill="#F7E2DE" />
<rect x="160" y="140" width="10" height="60" fill="#F7E2DE" />
<rect x="170" y="140" width="20" height="10" fill="#797AB4" />
<rect x="190" y="140" width="20" height="20" fill="#F7E2DE" />
<rect x="210" y="140" width="10" height="10" fill="#797AB4" />
<rect x="270" y="140" width="10" height="50" fill="#797AB4" />
<rect x="280" y="140" width="10" height="20" fill="#8284C4" />
<rect x="90" y="150" width="10" height="10" fill="#F7E2DE" />
<rect x="170" y="150" width="20" height="30" fill="#F7E2DE" />
<rect x="210" y="150" width="20" height="10" fill="#F7E2DE" />
<rect x="0" y="160" width="20" height="10" fill="#95A6AF" />
<rect x="20" y="160" width="10" height="20" fill="#8284C4" />
<rect x="30" y="160" width="10" height="40" fill="#797AB4" />
<rect x="80" y="160" width="10" height="10" fill="#F7E2DE" />
<rect x="90" y="160" width="30" height="10" fill="#797AB4" />
<rect x="120" y="160" width="10" height="20" fill="#F7E2DE" />
<rect x="190" y="160" width="10" height="20" fill="#F7E2DE" />
<rect x="200" y="160" width="30" height="10" fill="#797AB4" />
<rect x="230" y="160" width="10" height="10" fill="#F7E2DE" />
<rect x="280" y="160" width="10" height="40" fill="#797AB4" />
<rect x="290" y="160" width="10" height="20" fill="#8284C4" />
<rect x="300" y="160" width="20" height="10" fill="#95A6AF" />
<rect x="0" y="170" width="10" height="20" fill="#7A888F" />
<rect x="10" y="170" width="10" height="50" fill="#95A6AF" />
<rect x="80" y="170" width="40" height="10" fill="#DDE5FB" />
<rect x="200" y="170" width="40" height="10" fill="#DDE5FB" />
<rect x="300" y="170" width="10" height="50" fill="#95A6AF" />
<rect x="310" y="170" width="10" height="20" fill="#7A888F" />
<rect x="20" y="180" width="10" height="20" fill="#C6D3FA" />
<rect x="50" y="180" width="10" height="10" fill="#DDE5FB" />
<rect x="70" y="180" width="50" height="30" fill="#F7E2DE" />
<rect x="120" y="180" width="20" height="10" fill="#DDE5FB" />
<rect x="140" y="180" width="10" height="10" fill="#F7E2DE" />
<rect x="170" y="180" width="10" height="10" fill="#F7E2DE" />
<rect x="180" y="180" width="20" height="10" fill="#DDE5FB" />
<rect x="200" y="180" width="50" height="30" fill="#F7E2DE" />
<rect x="260" y="180" width="10" height="10" fill="#DDE5FB" />
<rect x="290" y="180" width="10" height="20" fill="#C6D3FA" />
<rect x="40" y="190" width="10" height="10" fill="#DDE5FB" />
<rect x="50" y="190" width="10" height="130" fill="#797AB4" />
<rect x="120" y="190" width="20" height="30" fill="#F7E2DE" />
<rect x="140" y="190" width="10" height="10" fill="#DDE5FB" />
<rect x="170" y="190" width="10" height="10" fill="#DDE5FB" />
<rect x="180" y="190" width="20" height="30" fill="#F7E2DE" />
<rect x="260" y="190" width="10" height="130" fill="#797AB4" />
<rect x="270" y="190" width="10" height="10" fill="#DDE5FB" />
<rect x="20" y="200" width="10" height="20" fill="#797AB4" />
<rect x="30" y="200" width="10" height="20" fill="#DDE5FB" />
<rect x="40" y="200" width="10" height="20" fill="#797AB4" />
<rect x="60" y="200" width="10" height="20" fill="#F7E2DE" />
<rect x="140" y="200" width="10" height="30" fill="#F7E2DE" />
<rect x="150" y="200" width="20" height="20" fill="#DDE5FB" />
<rect x="170" y="200" width="10" height="30" fill="#F7E2DE" />
<rect x="250" y="200" width="10" height="20" fill="#F7E2DE" />
<rect x="270" y="200" width="10" height="20" fill="#797AB4" />
<rect x="280" y="200" width="10" height="20" fill="#DDE5FB" />
<rect x="290" y="200" width="10" height="20" fill="#797AB4" />
<rect x="70" y="210" width="50" height="20" fill="#797AB4" />
<rect x="200" y="210" width="50" height="20" fill="#797AB4" />
<rect x="20" y="220" width="10" height="40" fill="#8284C4" />
<rect x="30" y="220" width="10" height="40" fill="#797AB4" />
<rect x="40" y="220" width="10" height="10" fill="#C6D3FA" />
<rect x="60" y="220" width="10" height="10" fill="#797AB4" />
<rect x="120" y="220" width="10" height="10" fill="#797AB4" />
<rect x="130" y="220" width="10" height="20" fill="#F7E2DE" />
<rect x="150" y="220" width="20" height="10" fill="#C6D3FA" />
<rect x="180" y="220" width="10" height="20" fill="#F7E2DE" />
<rect x="190" y="220" width="10" height="10" fill="#797AB4" />
<rect x="250" y="220" width="10" height="10" fill="#797AB4" />
<rect x="270" y="220" width="10" height="10" fill="#C6D3FA" />
<rect x="280" y="220" width="10" height="40" fill="#797AB4" />
<rect x="290" y="220" width="10" height="40" fill="#8284C4" />
<rect x="40" y="230" width="10" height="60" fill="#797AB4" />
<rect x="60" y="230" width="20" height="10" fill="#F7E2DE" />
<rect x="80" y="230" width="40" height="10" fill="#9697D3" />
<rect x="120" y="230" width="10" height="10" fill="#F7E2DE" />
<rect x="140" y="230" width="10" height="10" fill="#C6D3FA" />
<rect x="150" y="230" width="20" height="10" fill="#E9D2D0" />
<rect x="170" y="230" width="10" height="10" fill="#C6D3FA" />
<rect x="190" y="230" width="10" height="10" fill="#F7E2DE" />
<rect x="200" y="230" width="40" height="10" fill="#9697D3" />
<rect x="240" y="230" width="20" height="10" fill="#F7E2DE" />
<rect x="270" y="230" width="10" height="60" fill="#797AB4" />
<rect x="60" y="240" width="10" height="10" fill="#C6D3FA" />
<rect x="70" y="240" width="50" height="10" fill="#F7E2DE" />
<rect x="120" y="240" width="20" height="10" fill="#C6D3FA" />
<rect x="140" y="240" width="10" height="10" fill="#E9D2D0" />
<rect x="150" y="240" width="20" height="40" fill="#F7E2DE" />
<rect x="170" y="240" width="10" height="10" fill="#E9D2D0" />
<rect x="180" y="240" width="20" height="10" fill="#C6D3FA" />
<rect x="200" y="240" width="50" height="10" fill="#F7E2DE" />
<rect x="250" y="240" width="10" height="10" fill="#C6D3FA" />
<rect x="60" y="250" width="10" height="70" fill="#797AB4" />
<rect x="70" y="250" width="50" height="10" fill="#C6D3FA" />
<rect x="120" y="250" width="30" height="50" fill="#F7E2DE" />
<rect x="170" y="250" width="30" height="50" fill="#F7E2DE" />
<rect x="200" y="250" width="50" height="10" fill="#C6D3FA" />
<rect x="250" y="250" width="10" height="70" fill="#797AB4" />
<rect x="20" y="260" width="10" height="30" fill="#797AB4" />
<rect x="30" y="260" width="10" height="30" fill="#9697D3" />
<rect x="70" y="260" width="10" height="10" fill="#E7C2BF" />
<rect x="80" y="260" width="40" height="20" fill="#F7E2DE" />
<rect x="200" y="260" width="40" height="20" fill="#F7E2DE" />
<rect x="240" y="260" width="10" height="10" fill="#E7C2BF" />
<rect x="280" y="260" width="10" height="30" fill="#9697D3" />
<rect x="290" y="260" width="10" height="30" fill="#797AB4" />
<rect x="70" y="270" width="10" height="50" fill="#797AB4" />
<rect x="240" y="270" width="10" height="50" fill="#797AB4" />
<rect x="80" y="280" width="10" height="10" fill="#E7C2BF" />
<rect x="90" y="280" width="30" height="10" fill="#F7E2DE" />
<rect x="150" y="280" width="20" height="10" fill="#CCA39E" />
<rect x="200" y="280" width="30" height="10" fill="#F7E2DE" />
<rect x="230" y="280" width="10" height="10" fill="#E7C2BF" />
<rect x="30" y="290" width="10" height="30" fill="#797AB4" />
<rect x="40" y="290" width="10" height="30" fill="#9697D3" />
<rect x="80" y="290" width="10" height="30" fill="#797AB4" />
<rect x="90" y="290" width="20" height="10" fill="#E7C2BF" />
<rect x="110" y="290" width="10" height="10" fill="#F7E2DE" />
<rect x="150" y="290" width="20" height="20" fill="#F7E2DE" />
<rect x="200" y="290" width="10" height="10" fill="#F7E2DE" />
<rect x="210" y="290" width="20" height="10" fill="#E7C2BF" />
<rect x="230" y="290" width="10" height="30" fill="#797AB4" />
<rect x="270" y="290" width="10" height="30" fill="#9697D3" />
<rect x="280" y="290" width="10" height="30" fill="#797AB4" />
<rect x="90" y="300" width="20" height="20" fill="#797AB4" />
<rect x="110" y="300" width="20" height="10" fill="#E7C2BF" />
<rect x="130" y="300" width="20" height="10" fill="#F7E2DE" />
<rect x="170" y="300" width="20" height="10" fill="#F7E2DE" />
<rect x="190" y="300" width="20" height="10" fill="#E7C2BF" />
<rect x="210" y="300" width="20" height="20" fill="#797AB4" />
<rect x="110" y="310" width="20" height="10" fill="#797AB4" />
<rect x="130" y="310" width="60" height="10" fill="#E7C2BF" />
<rect x="190" y="310" width="20" height="10" fill="#797AB4" />
</svg>