<?xml version="1.0" encoding="UTF-8" ?>
<svg version="1.1" width="320" height="320" xmlns="http://www.w3.org/2000/svg" shape-rendering="crispEdges">
<rect x="100" y="0" width="20" height="10" fill="#7171BF" />
<rect x="120" y="0" width="80" height="70" fill="#565691" />
<rect x="200" y="0" width="20" height="10" fill="#7171BF" />
<rect x="80" y="10" width="10" height="10" fill="#565691" />
<rect x="90" y="10" width="10" height="10" fill="#7171BF" />
<rect x="100" y="10" width="20" height="60" fill="#565691" />
<rect x="200" y="10" width="20" height="50" fill="#565691" />
<rect x="220" y="10" width="10" height="10" fill="#7171BF" />
<rect x="230" y="10" width="10" height="10" fill="#565691" />
<rect x="70" y="20" width="20" height="10" fill="#7171BF" />
<rect x="90" y="20" width="10" height="40" fill="#565691" />
<rect x="220" y="20" width="10" height="30" fill="#565691" />
<rect x="230" y="20" width="20" height="10" fill="#7171BF" />
<rect x="60" y="30" width="10" height="10" fill="#7171BF" />
<rect x="70" y="30" width="20" height="20" fill="#565691" />
<rect x="230" y="30" width="20" height="130" fill="#565691" />
<rect x="250" y="30" width="10" height="10" fill="#7171BF" />
<rect x="60" y="40" width="10" height="170" fill="#565691" />
<rect x="250" y="40" width="10" height="170" fill="#565691" />
<rect x="50" y="50" width="10" height="10" fill="#7171BF" />
<rect x="70" y="50" width="10" height="130" fill="#565691" />
<rect x="80" y="50" width="10" height="10" fill="#CBCBFF" />
<rect x="220" y="50" width="10" height="10" fill="#CBCBFF" />
<rect x="260" y="50" width="10" height="10" fill="#7171BF" />
<rect x="40" y="60" width="10" height="20" fill="#7171BF" />
<rect x="50" y="60" width="10" height="120" fill="#565691" />
<rect x="80" y="60" width="10" height="100" fill="#565691" />
<rect x="90" y="60" width="10" height="10" fill="#CBCBFF" />
<rect x="200" y="60" width="20" height="10" fill="#CBCBFF" />
<rect x="220" y="60" width="10" height="90" fill="#565691" />
<rect x="260" y="60" width="10" height="120" fill="#565691" />
<rect x="270" y="60" width="10" height="20" fill="#7171BF" />
<rect x="90" y="70" width="10" height="80" fill="#565691" />
<rect x="100" y="70" width="20" height="10" fill="#CBCBFF" />
<rect x="120" y="70" width="20" height="40" fill="#565691" />
<rect x="140" y="70" width="50" height="10" fill="#CBCBFF" />
<rect x="190" y="70" width="30" height="60" fill="#565691" />
<rect x="30" y="80" width="10" height="30" fill="#7171BF" />
<rect x="40" y="80" width="10" height="100" fill="#565691" />
<rect x="100" y="80" width="20" height="50" fill="#565691" />
<rect x="140" y="80" width="50" height="20" fill="#565691" />
<rect x="270" y="80" width="10" height="100" fill="#565691" />
<rect x="280" y="80" width="10" height="30" fill="#7171BF" />
<rect x="140" y="100" width="10" height="20" fill="#565691" />
<rect x="150" y="100" width="10" height="20" fill="#E3ABA5" />
<rect x="160" y="100" width="30" height="10" fill="#565691" />
<rect x="30" y="110" width="10" height="80" fill="#565691" />
<rect x="120" y="110" width="10" height="10" fill="#565691" />
<rect x="130" y="110" width="10" height="10" fill="#E3ABA5" />
<rect x="160" y="110" width="10" height="10" fill="#E3ABA5" />
<rect x="170" y="110" width="20" height="10" fill="#565691" />
<rect x="280" y="110" width="10" height="80" fill="#565691" />
<rect x="20" y="120" width="10" height="80" fill="#565691" />
<rect x="120" y="120" width="10" height="10" fill="#E3ABA5" />
<rect x="130" y="120" width="20" height="60" fill="#EBC5C1" />
<rect x="150" y="120" width="10" height="10" fill="#565691" />
<rect x="160" y="120" width="10" height="10" fill="#EBC5C1" />
<rect x="170" y="120" width="10" height="10" fill="#E3ABA5" />
<rect x="180" y="120" width="10" height="10" fill="#565691" />
<rect x="290" y="120" width="10" height="80" fill="#565691" />
<rect x="100" y="130" width="10" height="10" fill="#565691" />
<rect x="110" y="130" width="20" height="30" fill="#EBC5C1" />
<rect x="150" y="130" width="10" height="70" fill="#EBC5C1" />
<rect x="160" y="130" width="10" height="10" fill="#565691" />
<rect x="170" y="130" width="30" height="10" fill="#EBC5C1" />
<rect x="200" y="130" width="20" height="10" fill="#565691" />
<rect x="100" y="140" width="10" height="20" fill="#EBC5C1" />
<rect x="160" y="140" width="10" height="60" fill="#EBC5C1" />
<rect x="170" y="140" width="20" height="10" fill="#565691" />
<rect x="190" y="140" width="20" height="20" fill="#EBC5C1" />
<rect x="210" y="140" width="10" height="10" fill="#565691" />
<rect x="10" y="150" width="10" height="10" fill="#565691" />
<rect x="90" y="150" width="10" height="10" fill="#EBC5C1" />
<rect x="170" y="150" width="20" height="30" fill="#EBC5C1" />
<rect x="210" y="150" width="20" height="10" fill="#EBC5C1" />
<rect x="300" y="150" width="10" height="10" fill="#565691" />
<rect x="0" y="160" width="20" height="10" fill="#EBC5C1" />
<rect x="80" y="160" width="10" height="10" fill="#EBC5C1" />
<rect x="90" y="160" width="30" height="10" fill="#565691" />
<rect x="120" y="160" width="10" height="20" fill="#EBC5C1" />
<rect x="190" y="160" width="10" height="20" fill="#EBC5C1" />
<rect x="200" y="160" width="30" height="10" fill="#565691" />
<rect x="230" y="160" width="10" height="10" fill="#EBC5C1" />
<rect x="240" y="160" width="10" height="20" fill="#565691" />
<rect x="300" y="160" width="20" height="10" fill="#EBC5C1" />
<rect x="0" y="170" width="10" height="20" fill="#E3ABA5" />
<rect x="10" y="170" width="10" height="30" fill="#EBC5C1" />
<rect x="80" y="170" width="40" height="10" fill="#9CB3FF" />
<rect x="200" y="170" width="40" height="10" fill="#9CB3FF" />
<rect x="300" y="170" width="10" height="30" fill="#EBC5C1" />
<rect x="310" y="170" width="10" height="20" fill="#E3ABA5" />
<rect x="40" y="180" width="20" height="10" fill="#9CB3FF" />
<rect x="70" y="180" width="50" height="10" fill="#EBC5C1" />
<rect x="120" y="180" width="20" height="10" fill="#9CB3FF" />
<rect x="140" y="180" width="10" height="10" fill="#EBC5C1" />
<rect x="170" y="180" width="10" height="10" fill="#EBC5C1" />
<rect x="180" y="180" width="20" height="10" fill="#9CB3FF" />
<rect x="200" y="180" width="50" height="10" fill="#EBC5C1" />
<rect x="260" y="180" width="20" height="10" fill="#9CB3FF" />
<rect x="30" y="190" width="10" height="10" fill="#9CB3FF" />
<rect x="40" y="190" width="20" height="50" fill="#565691" />
<rect x="70" y="190" width="50" height="10" fill="#565691" />
<rect x="120" y="190" width="20" height="10" fill="#EBC5C1" />
<rect x="140" y="190" width="10" height="10" fill="#9CB3FF" />
<rect x="170" y="190" width="10" height="10" fill="#9CB3FF" />
<rect x="180" y="190" width="20" height="10" fill="#EBC5C1" />
<rect x="200" y="190" width="50" height="10" fill="#565691" />
<rect x="260" y="190" width="20" height="50" fill="#565691" />
<rect x="280" y="190" width="10" height="10" fill="#9CB3FF" />
<rect x="10" y="200" width="20" height="30" fill="#9CB3FF" />
<rect x="30" y="200" width="10" height="30" fill="#565691" />
<rect x="70" y="200" width="20" height="10" fill="#FFFFFF" />
<rect x="90" y="200" width="40" height="20" fill="#565691" />
<rect x="130" y="200" width="20" height="30" fill="#EBC5C1" />
<rect x="150" y="200" width="20" height="30" fill="#9CB3FF" />
<rect x="170" y="200" width="20" height="30" fill="#EBC5C1" />
<rect x="190" y="200" width="10" height="20" fill="#565691" />
<rect x="200" y="200" width="20" height="10" fill="#FFFFFF" />
<rect x="220" y="200" width="30" height="20" fill="#565691" />
<rect x="280" y="200" width="10" height="30" fill="#565691" />
<rect x="290" y="200" width="20" height="30" fill="#9CB3FF" />
<rect x="60" y="210" width="10" height="30" fill="#EBC5C1" />
<rect x="70" y="210" width="20" height="10" fill="#565691" />
<rect x="200" y="210" width="20" height="10" fill="#565691" />
<rect x="250" y="210" width="10" height="30" fill="#EBC5C1" />
<rect x="70" y="220" width="60" height="10" fill="#7171BF" />
<rect x="190" y="220" width="60" height="10" fill="#7171BF" />
<rect x="20" y="230" width="10" height="60" fill="#565691" />
<rect x="30" y="230" width="10" height="10" fill="#9CB3FF" />
<rect x="70" y="230" width="10" height="20" fill="#EBC5C1" />
<rect x="80" y="230" width="40" height="10" fill="#7171BF" />
<rect x="120" y="230" width="20" height="10" fill="#EBC5C1" />
<rect x="140" y="230" width="10" height="10" fill="#9CB3FF" />
<rect x="150" y="230" width="20" height="10" fill="#E3ABA5" />
<rect x="170" y="230" width="10" height="10" fill="#9CB3FF" />
<rect x="180" y="230" width="20" height="10" fill="#EBC5C1" />
<rect x="200" y="230" width="40" height="10" fill="#7171BF" />
<rect x="240" y="230" width="10" height="20" fill="#EBC5C1" />
<rect x="280" y="230" width="10" height="10" fill="#9CB3FF" />
<rect x="290" y="230" width="10" height="30" fill="#565691" />
<rect x="30" y="240" width="10" height="80" fill="#565691" />
<rect x="40" y="240" width="10" height="10" fill="#9CB3FF" />
<rect x="50" y="240" width="10" height="80" fill="#565691" />
<rect x="60" y="240" width="10" height="10" fill="#E3ABA5" />
<rect x="80" y="240" width="40" height="10" fill="#EBC5C1" />
<rect x="120" y="240" width="20" height="10" fill="#9CB3FF" />
<rect x="140" y="240" width="10" height="10" fill="#E3ABA5" />
<rect x="150" y="240" width="20" height="40" fill="#EBC5C1" />
<rect x="170" y="240" width="10" height="10" fill="#E3ABA5" />
<rect x="180" y="240" width="20" height="10" fill="#9CB3FF" />
<rect x="200" y="240" width="40" height="10" fill="#EBC5C1" />
<rect x="250" y="240" width="10" height="10" fill="#E3ABA5" />
<rect x="260" y="240" width="10" height="80" fill="#565691" />
<rect x="270" y="240" width="10" height="10" fill="#9CB3FF" />
<rect x="280" y="240" width="10" height="80" fill="#565691" />
<rect x="40" y="250" width="10" height="70" fill="#565691" />
<rect x="60" y="250" width="10" height="70" fill="#565691" />
<rect x="70" y="250" width="50" height="10" fill="#9CB3FF" />
<rect x="120" y="250" width="30" height="60" fill="#EBC5C1" />
<rect x="170" y="250" width="30" height="60" fill="#EBC5C1" />
<rect x="200" y="250" width="50" height="10" fill="#9CB3FF" />
<rect x="250" y="250" width="10" height="70" fill="#565691" />
<rect x="270" y="250" width="10" height="70" fill="#565691" />
<rect x="70" y="260" width="10" height="10" fill="#E3ABA5" />
<rect x="80" y="260" width="40" height="20" fill="#EBC5C1" />
<rect x="200" y="260" width="40" height="20" fill="#EBC5C1" />
<rect x="240" y="260" width="10" height="10" fill="#E3ABA5" />
<rect x="70" y="270" width="10" height="50" fill="#565691" />
<rect x="240" y="270" width="10" height="50" fill="#565691" />
<rect x="290" y="270" width="10" height="20" fill="#565691" />
<rect x="80" y="280" width="10" height="10" fill="#E3ABA5" />
<rect x="90" y="280" width="30" height="20" fill="#EBC5C1" />
<rect x="150" y="280" width="20" height="10" fill="#C68079" />
<rect x="200" y="280" width="30" height="20" fill="#EBC5C1" />
<rect x="230" y="280" width="10" height="10" fill="#E3ABA5" />
<rect x="80" y="290" width="10" height="30" fill="#565691" />
<rect x="150" y="290" width="20" height="30" fill="#EBC5C1" />
<rect x="230" y="290" width="10" height="30" fill="#565691" />
<rect x="90" y="300" width="10" height="20" fill="#565691" />
<rect x="100" y="300" width="20" height="10" fill="#EBC5C1" />
<rect x="200" y="300" width="20" height="10" fill="#EBC5C1" />
<rect x="220" y="300" width="10" height="20" fill="#565691" />
<rect x="100" y="310" width="30" height="10" fill="#565691" />
<rect x="130" y="310" width="20" height="10" fill="#EBC5C1" />
<rect x="170" y="310" width="20" height="10" fill="#EBC5C1" />
<rect x="190" y="310" width="30" height="10" fill="#565691" />
</svg>